<svg aria-hidden="true" style="position: absolute; width: 0; height: 0; overflow: hidden;" version="1.1" xmlns="http://www.w3.org/2000/svg" xmlns:xlink="http://www.w3.org/1999/xlink">
<defs>
<symbol id="icon-Vector-10-1" viewBox="0 0 35 32">
<path d="M15.278 2.913v-0.546c0-0.901-0.736-1.637-1.637-1.637h-5.456c-0.901 0-1.637 0.736-1.637 1.637v0.546h-6.548v4.365h6.548v0.546c0 0.901 0.736 1.637 1.637 1.637h5.456c0.901 0 1.637-0.736 1.637-1.637v-0.546h19.643v-4.365h-19.643zM8.73 7.278v-4.365h4.365v4.365h-4.365zM28.374 13.28c0-0.901-0.736-1.637-1.637-1.637h-5.456c-0.901 0-1.637 0.736-1.637 1.637v0.546h-19.643v4.365h19.643v0.546c0 0.901 0.736 1.637 1.637 1.637h5.456c0.901 0 1.637-0.736 1.637-1.637v-0.546h6.548v-4.365h-6.548v-0.546zM21.826 18.191v-4.365h4.365v4.365h-4.365zM15.278 24.193c0-0.901-0.736-1.637-1.637-1.637h-5.456c-0.901 0-1.637 0.736-1.637 1.637v0.546h-6.548v4.365h6.548v0.546c0 0.901 0.736 1.637 1.637 1.637h5.456c0.901 0 1.637-0.736 1.637-1.637v-0.546h19.643v-4.365h-19.643v-0.546zM8.73 29.104v-4.365h4.365v4.365h-4.365z"></path>
</symbol>
</defs>
</svg>
